HIERARCHY
ROOT PELVIS
{
    OFFSET 0 0 0
    CHANNELS 6 Xposition Yposition Zposition Xrotation Yrotation Zrotation
    JOINT SPINE_NAVAL
    {
        OFFSET -2.0534851999999972 15.5394837 -4.181665000000021
        CHANNELS 3 Xrotation Yrotation Zrotation
        JOINT SPINE_CHEST
        {
            OFFSET -0.1256637000000012 12.880011000000001 -1.5139648999999735
            CHANNELS 3 Xrotation Yrotation Zrotation
            JOINT NECK
            {
                OFFSET 0.6955734000000007 19.713171299999992 -0.8032470999999987
                CHANNELS 3 Xrotation Yrotation Zrotation
            }
            JOINT CLAVICLE_LEFT
            {
                OFFSET 2.8376296999999995 16.523620599999997 -0.8934326000000056
                CHANNELS 3 Xrotation Yrotation Zrotation
                JOINT SHOULDER_LEFT
                {
                    OFFSET 10.252911399999999 -3.060675100000003 -7.381201199999987
                    CHANNELS 3 Xrotation Yrotation Zrotation
                    JOINT ELBOW_LEFT
                    {
                        OFFSET 3.705188000000004 -24.848709099999997 -0.4947998000000098
                        CHANNELS 3 Xrotation Yrotation Zrotation
                        JOINT WRIST_LEFT
                        {
                            OFFSET -1.6777131000000054 -20.755538899999998 -3.3462890000000245
                            CHANNELS 3 Xrotation Yrotation Zrotation
                            JOINT HAND_LEFT
                            {
                                OFFSET 2.300473100000005 -8.163669200000001 2.175024400000029
                                CHANNELS 3 Xrotation Yrotation Zrotation
                                JOINT HANDTIP_LEFT
                                {
                                    OFFSET -0.051223800000002484 -7.1441635 6.745263599999999
                                    CHANNELS 3 Xrotation Yrotation Zrotation
                                }
                            }
                        }
                    }
                }
            }
            JOINT CLAVICLE_RIGHT
            {
                OFFSET -1.0794707999999986 16.622052000000004 1.603588899999977
                CHANNELS 3 Xrotation Yrotation Zrotation
                JOINT SHOULDER_RIGHT
                {
                    OFFSET -10.558650200000002 -3.7694825000000036 4.160668900000019
                    CHANNELS 3 Xrotation Yrotation Zrotation
                    JOINT ELBOW_RIGHT
                    {
                        OFFSET -3.171775099999999 -24.1309143 7.949121100000002
                        CHANNELS 3 Xrotation Yrotation Zrotation
                        JOINT WRIST_RIGHT
                        {
                            OFFSET -3.3093597000000003 -20.921231799999997 -2.7364501999999904
                            CHANNELS 3 Xrotation Yrotation Zrotation
                            JOINT HAND_RIGHT
                            {
                                OFFSET -0.3383876999999991 -8.972045099999999 2.876147499999979
                                CHANNELS 3 Xrotation Yrotation Zrotation
                            }
                        }
                    }
                }
            }
        }
    }
}
MOTION
Frames: 23
Frame Time: 0.01
0 0 0 0.0 0.0 0.0 0.0 0.0 0.0 0.0 0.0 0.0 0 0 0 0.0 0.0 0.0 0.0 0.0 0.0 0.0 0.0 0.0 0.0 0.0 0.0 0.0 0.0 0.0 0 0 0 0.0 0.0 0.0 0.0 0.0 0.0 0.0 0.0 0.0 0.0 0.0 0.0 0 0 0 
0 0 0 0.0 0.0 0.0 0.0 0.0 0.0 0.0 0.0 0.0 0 0 0 0.0 0.0 0.0 0.0 0.0 0.0 0.0 0.0 0.0 0.0 0.0 0.0 0.0 0.0 0.0 0 0 0 0.0 0.0 0.0 0.0 0.0 0.0 0.0 0.0 0.0 0.0 0.0 0.0 0 0 0 
0 0 0 0.0 0.0 0.0 0.0 0.0 0.0 0.0 0.0 0.0 0 0 0 0.0 0.0 0.0 0.0 0.0 0.0 0.0 0.0 0.0 0.0 0.0 0.0 0.0 0.0 0.0 0 0 0 0.0 0.0 0.0 0.0 0.0 0.0 0.0 0.0 0.0 0.0 0.0 0.0 0 0 0 
0 0 0 0.0 0.0 0.0 0.0 0.0 0.0 0.0 0.0 0.0 0 0 0 0.0 0.0 0.0 0.0 0.0 0.0 0.0 0.0 0.0 0.0 0.0 0.0 0.0 0.0 0.0 0 0 0 0.0 0.0 0.0 0.0 0.0 0.0 0.0 0.0 0.0 0.0 0.0 0.0 0 0 0 
0 0 0 0.0 0.0 0.0 0.0 0.0 0.0 0.0 0.0 0.0 0 0 0 0.0 0.0 0.0 0.0 0.0 0.0 0.0 0.0 0.0 0.0 0.0 0.0 0.0 0.0 0.0 0 0 0 0.0 0.0 0.0 0.0 0.0 0.0 0.0 0.0 0.0 0.0 0.0 0.0 0 0 0 
0 0 0 0.0 0.0 0.0 0.0 0.0 0.0 0.0 0.0 0.0 0 0 0 0.0 0.0 0.0 0.0 0.0 0.0 0.0 0.0 0.0 0.0 0.0 0.0 0.0 0.0 0.0 0 0 0 0.0 0.0 0.0 0.0 0.0 0.0 0.0 0.0 0.0 0.0 0.0 0.0 0 0 0 
0 0 0 0.0 0.0 0.0 0.0 0.0 0.0 0.0 0.0 0.0 0 0 0 0.0 0.0 0.0 0.0 0.0 0.0 0.0 0.0 0.0 0.0 0.0 0.0 0.0 0.0 0.0 0 0 0 0.0 0.0 0.0 0.0 0.0 0.0 0.0 0.0 0.0 0.0 0.0 0.0 0 0 0 
0 0 0 0.0 0.0 0.0 0.0 0.0 0.0 0.0 0.0 0.0 0 0 0 0.0 0.0 0.0 0.0 0.0 0.0 0.0 0.0 0.0 0.0 0.0 0.0 0.0 0.0 0.0 0 0 0 0.0 0.0 0.0 0.0 0.0 0.0 0.0 0.0 0.0 0.0 0.0 0.0 0 0 0 
0 0 0 0.0 0.0 0.0 0.0 0.0 0.0 0.0 0.0 0.0 0 0 0 0.0 0.0 0.0 0.0 0.0 0.0 0.0 0.0 0.0 0.0 0.0 0.0 0.07610291930094625 -0.17911085345825625 -0.18937953372853722 0 0 0 0.0 0.0 0.0 0.0 0.0 0.0 0.0 0.0 0.0 -0.15097158167675503 -0.15541593610985127 -0.5003927246634537 0 0 0 
0 0 0 0.0 0.0 0.0 0.0 0.0 0.0 0.0 0.0 0.0 0 0 0 -0.025007560347669662 0.25705303652560213 -0.1409558150171557 -0.021858675729498123 -0.009842928816249385 0.3331260273224867 0.0 0.0 0.0 -0.29628080155745745 -0.1718563941720321 -0.3223398581340086 0.48893239365435837 -0.3309576868835914 -0.34509594767025614 0 0 0 0.0 0.0 0.0 0.0 0.0 0.0 0.0 0.0 0.0 -0.2801886139322279 -0.3047428324159458 -0.9756966799464396 0 0 0 
0 0 0 0.0 0.0 0.0 0.0 0.0 0.0 0.2591988683903932 -0.008914802995320147 0.005980611299178811 0 0 0 -0.13822936793599191 0.34603486394352934 -0.332543630888663 -0.1820699870087621 -0.039087094040542274 0.6126011403956273 0.0 0.0 0.0 -0.4386112128608758 -0.2527636559881245 -0.4647268382209694 0.7139256519058513 -0.47393744117895475 -0.49234016471429864 0 0 0 0.0 0.0 0.0 0.0 0.0 0.0 0.0 0.0 0.0 -0.66729807196676 -0.44407087059587713 -1.4577958478143778 0 0 0 
0 0 0 0.0 0.0 0.0 0.0 0.0 0.0 0.34519492967516585 -0.011868925218643463 0.008209645959058298 0 0 0 -0.18531017641273226 0.46103210071284273 -0.4433425953340863 -0.2423709203930439 -0.05191880692907385 0.8161581145252932 0.0 0.0 0.0 -0.58636026913171 -0.33973405502833715 -0.6191439497767111 0.9523565154711907 -0.6321998392091022 -0.6548271693023443 0 0 0 0.0 0.0 0.0 0.0 0.0 0.0 0.0 0.0 0.0 -0.8800204741903481 -0.5906575728135638 -1.9359460624513178 0 0 0 
0 0 0 0.0 0.0 0.0 0.0 0.0 0.0 0.4312230693319901 -0.014827497413195268 0.010435077056491453 0 0 0 -0.2328392006407262 0.5761025654143516 -0.5541466176076559 -0.3023596409944041 -0.06463916821206261 1.019601075378521 0.0 0.0 0.0 -0.7344396406553398 -0.42796980075356655 -0.7734072311798458 1.1913914314222815 -0.7908839306675195 -0.8167926482808007 0 0 0 0.0785810997074465 0.05533566215944819 0.25177404376926416 -0.17020912512465752 -0.05306431963685306 -0.23220588341615925 0.0 0.0 0.0 -0.9997509772277965 -0.7489385864290853 -2.4307684085329084 0 0 0 
0 0 0 0.0 0.0 0.0 0.23749122512154278 -0.015704270139085277 -0.15609911263691884 0.2797082693898731 -0.004866059188612864 0.1688947781445434 0 0 0 -0.28017762878756697 0.6945710373975633 -0.6654607431739138 -0.36254944588691557 -0.07733037807413526 1.2232864516603785 0.0 0.0 0.0 -0.8828169475063161 -0.5174457037960326 -0.9274470167521528 1.430945457765543 -0.9499085562860334 -0.978148287667466 0 0 0 0.09348259661343104 0.06900502468081701 0.3030193940014467 -0.2027917968406482 -0.06366661266027511 -0.2788172103560972 0.0 0.0 0.0 -1.192055551298043 -0.8992287966798865 -2.9126556218884234 0 0 0 
0 0 0 0.0 0.0 0.0 0.2637787463251792 -0.017404410792886654 -0.17339540392840685 0.3107050549761476 -0.005633690607332556 0.18769256207840798 0 0 0 -0.3122373123735301 0.7718751228091546 -0.7393129904093255 -0.4021985235042279 -0.08567772270601562 1.3586214399743821 0.0 0.0 0.0 -0.9817666961444521 -0.5777137170957256 -1.0299075473818173 1.590741225433209 -1.056019090956352 -1.0852884783342012 0 0 0 0.10385033340981953 0.07664180631995676 0.3370231196491107 -0.22494921214037505 -0.07059171986984307 -0.3097671649873104 0.0 0.0 0.0 -1.319351588560967 -0.9995422749665444 -3.233335352408033 0 0 0 
0 0 0 0.0 0.0 0.0 0.26397123708882025 -0.01741232008246827 -0.1734829073884127 0.31078804827158585 -0.005640772363887265 0.18761299180358515 0 0 0 -0.3123405807615423 0.7713621322061233 -0.7392519411855377 -0.4023568184455598 -0.08569763438889759 1.3585668198848266 0.0 0.0 0.0 -0.9810581657704038 -0.576983398979574 -1.0280773072312615 1.5907288198387013 -1.0535497145881572 -1.0827828755227094 0 0 0 0.10412047897906661 0.0758486379318953 0.3369893284149046 -0.22454440429158715 -0.07060691676304322 -0.30967762751885747 0.0 0.0 0.0 -1.3162894906281053 -0.9975404324404477 -3.227315845944591 0 0 0 
0 0 0 0.0 0.0 0.0 0.26416372805561233 -0.017420229085876298 -0.17357041096139256 0.31087104167443796 -0.005647853731498304 0.1875334214205867 0 0 0 -0.31244384965423055 0.7708491409018433 -0.7391908914480019 -0.40251511320132155 -0.08571754551016993 1.3585122019208635 0.0 0.0 0.0 -0.980349613880671 -0.5762531016261215 -1.0262470536042647 1.5907165510568975 -1.051080414005049 -1.0802772233762952 0 0 0 0.10439062397257387 0.07505546780033008 0.3369555345110993 -0.22413959836783554 -0.07062212295236858 -0.30958809134978055 0.0 0.0 0.0 -1.3132271983348378 -0.9955391542057289 -3.221296151110851 0 0 0 
0 0 0 0.0 0.0 0.0 0.2643562192253514 -0.01742813780311074 -0.1736579146473558 0.3109540351851578 -0.005654934710178394 0.18745385092942143 0 0 0 -0.3125471190516443 0.7703361488960602 -0.739129841196657 -0.4026734077719137 -0.08573745606989626 1.3584575860824037 0.0 0.0 0.0 -0.9796410404763711 -0.5755228250375564 -1.0244167865032348 1.5907044190866861 -1.048611189254036 -1.0777715219406625 0 0 0 0.10466076839018547 0.07426229592585906 0.33692173793773533 -0.22373479436949492 -0.07063733843764106 -0.3094985564804743 0.0 0.0 0.0 -1.3101647118460866 -0.9935384403593442 -3.2152762681350837 0 0 0 
0 0 0 0.0 0.0 0.0 0.264548710598024 -0.01743604623415887 -0.17374541844627384 0.31103702880347467 -0.005662015299927535 0.18737428033006392 0 0 0 -0.31265038895362945 0.7698231561891173 -0.739068790431424 -0.40283170215708325 -0.08575736606802568 1.358402972369399 0.0 0.0 0.0 -0.9789324455599455 -0.5747925692166012 -1.0225865059310089 1.5906924239292703 -1.0461420403819992 -1.0752657712613543 0 0 0 0.1049309122317271 0.07346912230906748 0.33688793869476386 -0.2233299922969657 -0.07065256321863164 -0.309409022911236 0.0 0.0 0.0 -1.3071020313251338 -0.9915382909982243 -3.209256197245624 0 0 0 
0 0 0 0.0 0.0 0.0 0.26474120217343755 -0.017443954379033413 -0.17383292235815648 0.3111200225296975 -0.005669095500745728 0.1872947096225397 0 0 0 -0.31275365936033334 0.7693101627810148 -0.7390077391524892 -0.40298999635704097 -0.0857772755045582 1.358348360782066 0.0 0.0 0.0 -0.9782238291317368 -0.5740623341652786 -1.0207562118901221 1.590680565582152 -1.0436729674361895 -1.072759971384353 0 0 0 0.10520105549730675 0.07267594694990442 0.3368541367822953 -0.22292519215132273 -0.07066779729502229 -0.3093194906423353 -0.12086215663872185 0.04968093848659175 -0.22229658144885034 -1.1824147388128434 -0.9325277872749503 -3.0152289130193854 0 0 0 
0 0 0 0.0 0.0 0.0 0.2649336939517771 -0.01745186223773437 -0.17392042638301283 0.31120301636388936 -0.0056761753126456935 0.18721513880689827 0 0 0 -0.3128569302718052 0.7687971686715366 -0.7389466873598178 -0.4031482903718821 -0.08579718437951928 1.3582937513203073 0.0 0.0 0.0 -0.9775151911934457 -0.5733321198860188 -1.0189259043831806 1.5906688440454007 -1.0412039704634497 -1.070254122355182 0 0 0 0.10547119818644535 0.07188276984970574 0.3368203322002112 -0.22252039393273684 -0.07068304066668578 -0.3092299596742834 -0.11991898150080921 0.04996695702639977 -0.22540454241551552 -1.1802857525603818 -0.9295391551381851 -3.006510769478248 0 0 0 
0 0 0 0.0 0.0 0.0 0.2650622400745605 -0.017457142946398604 -0.17397886163370688 0.3112584397058466 -0.005680902994413303 0.18716200135597175 0 0 0 -0.3129258948673929 0.7684545908148854 -0.738905916686416 -0.40325399901158177 -0.0858104792134147 1.3582572843053284 0.0 0.0 0.0 -0.9770419508006641 -0.5728444943590735 -1.0177036175324115 1.5906610925894893 -1.0395552166162134 -1.068580689024488 0 0 0 0.10565159915347327 0.07135308521227811 0.33679775601383655 -0.22225007075586048 -0.07069322536648462 -0.30917017161836896 -0.1192891241450879 0.05015805302059539 -0.22748003758744825 -1.178863801457806 -0.9275439851353868 -3.0006885967375605 0 0 0 
0 0 0 0.0 0.0 0.0 0.27725610770747056 -0.017204263293490833 -0.172977819183559 0.3389254181714671 -0.0066582488673517 0.1920810843697142 0 0 0 -0.34176617674600085 0.7426707999921486 -0.7678424701148246 -0.4013451836076245 -0.08568767618946334 1.3627548257558246 0.0 0.0 0.0 -0.8444417176142937 -0.5571541582978189 -1.111098907964115 1.2467152763829434 -0.87853602124259 -0.9006461852728728 0 0 0 0.1443991876306981 -0.06365334044937251 0.3121835562932337 -0.2631935215139772 -0.03526823188931988 -0.21567344183612683 -0.25413903380957104 0.0856199975296667 -0.3342621584774469 -1.8624449257832958 -0.7924641655384559 -2.609219128021053 0 0 0 
